<?xml version="1.0" encoding="UTF-8" standalone="no"?>
<svg width="1359px" height="236px" viewBox="0 0 1359 236" version="1.1" xmlns="http://www.w3.org/2000/svg" xmlns:xlink="http://www.w3.org/1999/xlink">
    <!-- Generator: Sketch 39.1 (31720) - http://www.bohemiancoding.com/sketch -->
    <title>Long - Cyan</title>
    <desc>Created with Sketch.</desc>
    <defs></defs>
    <g id="Page-4" stroke="none" stroke-width="1" fill="none" fill-rule="evenodd">
        <g id="Long---Cyan">
            <path d="M76.976,232.88 C65.6479434,232.88 55.280047,230.816021 45.872,226.688 C36.463953,222.559979 28.4000336,216.944036 21.68,209.84 C14.9599664,202.735964 9.72801872,194.432048 5.984,184.928 C2.23998128,175.423952 0.368,165.392053 0.368,154.832 C0.368,144.271947 2.23998128,134.288047 5.984,124.88 C9.72801872,115.471953 15.0079659,107.216036 21.824,100.112 C28.6400341,93.0079645 36.751953,87.3920206 46.16,83.264 C55.568047,79.1359794 65.9359434,77.072 77.264,77.072 C88.5920566,77.072 98.9119534,79.1839789 108.224,83.408 C117.536047,87.6320211 125.455967,93.247965 131.984,100.256 C138.512033,107.264035 143.551982,115.423953 147.104,124.736 C150.656018,134.048047 152.432,143.69595 152.432,153.68 C152.432,155.792011 152.384,157.711991 152.288,159.44 C152.192,161.168009 152.048001,162.511995 151.856,163.472 L27.152,163.472 C27.7280029,170.960037 29.4559856,177.775969 32.336,183.92 C35.2160144,190.064031 38.959977,195.343978 43.568,199.76 C48.176023,204.176022 53.4079707,207.631988 59.264,210.128 C65.1200293,212.624012 71.3119674,213.872 77.84,213.872 C82.448023,213.872 86.9599779,213.248006 91.376,212 C95.7920221,210.751994 99.9199808,209.072011 103.76,206.96 C107.600019,204.847989 111.007985,202.256015 113.984,199.184 C116.960015,196.111985 119.215992,192.656019 120.752,188.816 L142.64,194.864 C140.143988,200.432028 136.736022,205.519977 132.416,210.128 C128.095978,214.736023 123.104028,218.719983 117.44,222.08 C111.775972,225.440017 105.488035,228.07999 98.576,230 C91.6639654,231.92001 84.4640374,232.88 76.976,232.88 L76.976,232.88 Z M128.528,144.752 C127.951997,137.647964 126.176015,131.07203 123.2,125.024 C120.223985,118.97597 116.480023,113.840021 111.968,109.616 C107.455977,105.391979 102.22403,102.080012 96.272,99.68 C90.3199702,97.279988 83.9840336,96.08 77.264,96.08 C70.5439664,96.08 64.2080298,97.279988 58.256,99.68 C52.3039702,102.080012 47.0720226,105.439978 42.56,109.76 C38.0479774,114.080022 34.4000139,119.21597 31.616,125.168 C28.8319861,131.12003 27.1520029,137.647964 26.576,144.752 L128.528,144.752 Z M194.208,41.6 C191.54132,41.6 190.208,40.26668 190.208,37.6 C190.208,34.93332 191.54132,33.6 194.208,33.6 C196.87468,33.6 198.208,34.93332 198.208,37.6 C198.208,40.26668 196.87468,41.6 194.208,41.6 L194.208,41.6 Z M204.208,31.6 C201.54132,31.6 200.208,30.26668 200.208,27.6 C200.208,24.93332 201.54132,23.6 204.208,23.6 C206.87468,23.6 208.208,24.93332 208.208,27.6 C208.208,30.26668 206.87468,31.6 204.208,31.6 L204.208,31.6 Z M216.208,22.4 C213.54132,22.4 212.208,21.06668 212.208,18.4 C212.208,15.73332 213.54132,14.4 216.208,14.4 C218.87468,14.4 220.208,15.73332 220.208,18.4 C220.208,21.06668 218.87468,22.4 216.208,22.4 L216.208,22.4 Z M229.808,15.6 C227.14132,15.6 225.808,14.26668 225.808,11.6 C225.808,8.93332 227.14132,7.6 229.808,7.6 C232.47468,7.6 233.808,8.93332 233.808,11.6 C233.808,14.26668 232.47468,15.6 229.808,15.6 L229.808,15.6 Z M243.808,10.8 C241.14132,10.8 239.808,9.46668 239.808,6.8 C239.808,4.13332 241.14132,2.8 243.808,2.8 C246.47468,2.8 247.808,4.13332 247.808,6.8 C247.808,9.46668 246.47468,10.8 243.808,10.8 L243.808,10.8 Z M258.208,8 C255.54132,8 254.208,6.66668 254.208,4 C254.208,1.33332 255.54132,0 258.208,0 C260.87468,0 262.208,1.33332 262.208,4 C262.208,6.66668 260.87468,8 258.208,8 L258.208,8 Z M273.008,8 C270.34132,8 269.008,6.66668 269.008,4 C269.008,1.33332 270.34132,0 273.008,0 C275.67468,0 277.008,1.33332 277.008,4 C277.008,6.66668 275.67468,8 273.008,8 L273.008,8 Z M287.808,10.4 C285.14132,10.4 283.808,9.06668 283.808,6.4 C283.808,3.73332 285.14132,2.4 287.808,2.4 C290.47468,2.4 291.808,3.73332 291.808,6.4 C291.808,9.06668 290.47468,10.4 287.808,10.4 L287.808,10.4 Z M302.208,16 C299.54132,16 298.208,14.66668 298.208,12 C298.208,9.33332 299.54132,8 302.208,8 C304.87468,8 306.208,9.33332 306.208,12 C306.208,14.66668 304.87468,16 302.208,16 L302.208,16 Z M315.008,24.8 C312.34132,24.8 311.008,23.46668 311.008,20.8 C311.008,18.13332 312.34132,16.8 315.008,16.8 C317.67468,16.8 319.008,18.13332 319.008,20.8 C319.008,23.46668 317.67468,24.8 315.008,24.8 L315.008,24.8 Z M325.408,36.4 C322.74132,36.4 321.408,35.06668 321.408,32.4 C321.408,29.73332 322.74132,28.4 325.408,28.4 C328.07468,28.4 329.408,29.73332 329.408,32.4 C329.408,35.06668 328.07468,36.4 325.408,36.4 L325.408,36.4 Z M331.408,50.4 C328.74132,50.4 327.408,49.06668 327.408,46.4 C327.408,43.73332 328.74132,42.4 331.408,42.4 C334.07468,42.4 335.408,43.73332 335.408,46.4 C335.408,49.06668 334.07468,50.4 331.408,50.4 L331.408,50.4 Z M333.408,66 C330.74132,66 329.408,64.66668 329.408,62 C329.408,59.33332 330.74132,58 333.408,58 C336.07468,58 337.408,59.33332 337.408,62 C337.408,64.66668 336.07468,66 333.408,66 L333.408,66 Z M331.408,81.2 C328.74132,81.2 327.408,79.86668 327.408,77.2 C327.408,74.53332 328.74132,73.2 331.408,73.2 C334.07468,73.2 335.408,74.53332 335.408,77.2 C335.408,79.86668 334.07468,81.2 331.408,81.2 L331.408,81.2 Z M325.008,94.4 C322.34132,94.4 321.008,93.06668 321.008,90.4 C321.008,87.73332 322.34132,86.4 325.008,86.4 C327.67468,86.4 329.008,87.73332 329.008,90.4 C329.008,93.06668 327.67468,94.4 325.008,94.4 L325.008,94.4 Z M315.008,104.8 C312.34132,104.8 311.008,103.46668 311.008,100.8 C311.008,98.13332 312.34132,96.8 315.008,96.8 C317.67468,96.8 319.008,98.13332 319.008,100.8 C319.008,103.46668 317.67468,104.8 315.008,104.8 L315.008,104.8 Z M302.608,113.2 C299.94132,113.2 298.608,111.86668 298.608,109.2 C298.608,106.53332 299.94132,105.2 302.608,105.2 C305.27468,105.2 306.608,106.53332 306.608,109.2 C306.608,111.86668 305.27468,113.2 302.608,113.2 L302.608,113.2 Z M289.408,120 C286.74132,120 285.408,118.66668 285.408,116 C285.408,113.33332 286.74132,112 289.408,112 C292.07468,112 293.408,113.33332 293.408,116 C293.408,118.66668 292.07468,120 289.408,120 L289.408,120 Z M275.408,126 C272.74132,126 271.408,124.66668 271.408,122 C271.408,119.33332 272.74132,118 275.408,118 C278.07468,118 279.408,119.33332 279.408,122 C279.408,124.66668 278.07468,126 275.408,126 L275.408,126 Z M261.008,132 C258.34132,132 257.008,130.66668 257.008,128 C257.008,125.33332 258.34132,124 261.008,124 C263.67468,124 265.008,125.33332 265.008,128 C265.008,130.66668 263.67468,132 261.008,132 L261.008,132 Z M247.008,138.8 C244.34132,138.8 243.008,137.46668 243.008,134.8 C243.008,132.13332 244.34132,130.8 247.008,130.8 C249.67468,130.8 251.008,132.13332 251.008,134.8 C251.008,137.46668 249.67468,138.8 247.008,138.8 L247.008,138.8 Z M232.608,146.8 C229.94132,146.8 228.608,145.46668 228.608,142.8 C228.608,140.13332 229.94132,138.8 232.608,138.8 C235.27468,138.8 236.608,140.13332 236.608,142.8 C236.608,145.46668 235.27468,146.8 232.608,146.8 L232.608,146.8 Z M219.408,157.2 C216.74132,157.2 215.408,155.86668 215.408,153.2 C215.408,150.53332 216.74132,149.2 219.408,149.2 C222.07468,149.2 223.408,150.53332 223.408,153.2 C223.408,155.86668 222.07468,157.2 219.408,157.2 L219.408,157.2 Z M208.608,170 C205.94132,170 204.608,168.66668 204.608,166 C204.608,163.33332 205.94132,162 208.608,162 C211.27468,162 212.608,163.33332 212.608,166 C212.608,168.66668 211.27468,170 208.608,170 L208.608,170 Z M200.208,184 C197.54132,184 196.208,182.66668 196.208,180 C196.208,177.33332 197.54132,176 200.208,176 C202.87468,176 204.208,177.33332 204.208,180 C204.208,182.66668 202.87468,184 200.208,184 L200.208,184 Z M194.208,198 C191.54132,198 190.208,196.66668 190.208,194 C190.208,191.33332 191.54132,190 194.208,190 C196.87468,190 198.208,191.33332 198.208,194 C198.208,196.66668 196.87468,198 194.208,198 L194.208,198 Z M191.008,212.4 C188.34132,212.4 187.008,211.06668 187.008,208.4 C187.008,205.73332 188.34132,204.4 191.008,204.4 C193.67468,204.4 195.008,205.73332 195.008,208.4 C195.008,211.06668 193.67468,212.4 191.008,212.4 L191.008,212.4 Z M189.008,227.2 C186.34132,227.2 185.008,225.86668 185.008,223.2 C185.008,220.53332 186.34132,219.2 189.008,219.2 C191.67468,219.2 193.008,220.53332 193.008,223.2 C193.008,225.86668 191.67468,227.2 189.008,227.2 L189.008,227.2 Z M203.408,227.2 C200.74132,227.2 199.408,225.86668 199.408,223.2 C199.408,220.53332 200.74132,219.2 203.408,219.2 C206.07468,219.2 207.408,220.53332 207.408,223.2 C207.408,225.86668 206.07468,227.2 203.408,227.2 L203.408,227.2 Z M217.408,227.2 C214.74132,227.2 213.408,225.86668 213.408,223.2 C213.408,220.53332 214.74132,219.2 217.408,219.2 C220.07468,219.2 221.408,220.53332 221.408,223.2 C221.408,225.86668 220.07468,227.2 217.408,227.2 L217.408,227.2 Z M231.008,227.2 C228.34132,227.2 227.008,225.86668 227.008,223.2 C227.008,220.53332 228.34132,219.2 231.008,219.2 C233.67468,219.2 235.008,220.53332 235.008,223.2 C235.008,225.86668 233.67468,227.2 231.008,227.2 L231.008,227.2 Z M245.408,227.2 C242.74132,227.2 241.408,225.86668 241.408,223.2 C241.408,220.53332 242.74132,219.2 245.408,219.2 C248.07468,219.2 249.408,220.53332 249.408,223.2 C249.408,225.86668 248.07468,227.2 245.408,227.2 L245.408,227.2 Z M259.408,227.2 C256.74132,227.2 255.408,225.86668 255.408,223.2 C255.408,220.53332 256.74132,219.2 259.408,219.2 C262.07468,219.2 263.408,220.53332 263.408,223.2 C263.408,225.86668 262.07468,227.2 259.408,227.2 L259.408,227.2 Z M273.408,227.2 C270.74132,227.2 269.408,225.86668 269.408,223.2 C269.408,220.53332 270.74132,219.2 273.408,219.2 C276.07468,219.2 277.408,220.53332 277.408,223.2 C277.408,225.86668 276.07468,227.2 273.408,227.2 L273.408,227.2 Z M287.808,227.2 C285.14132,227.2 283.808,225.86668 283.808,223.2 C283.808,220.53332 285.14132,219.2 287.808,219.2 C290.47468,219.2 291.808,220.53332 291.808,223.2 C291.808,225.86668 290.47468,227.2 287.808,227.2 L287.808,227.2 Z M301.808,227.2 C299.14132,227.2 297.808,225.86668 297.808,223.2 C297.808,220.53332 299.14132,219.2 301.808,219.2 C304.47468,219.2 305.808,220.53332 305.808,223.2 C305.808,225.86668 304.47468,227.2 301.808,227.2 L301.808,227.2 Z M315.408,227.2 C312.74132,227.2 311.408,225.86668 311.408,223.2 C311.408,220.53332 312.74132,219.2 315.408,219.2 C318.07468,219.2 319.408,220.53332 319.408,223.2 C319.408,225.86668 318.07468,227.2 315.408,227.2 L315.408,227.2 Z M329.808,227.2 C327.14132,227.2 325.808,225.86668 325.808,223.2 C325.808,220.53332 327.14132,219.2 329.808,219.2 C332.47468,219.2 333.808,220.53332 333.808,223.2 C333.808,225.86668 332.47468,227.2 329.808,227.2 L329.808,227.2 Z M453.184,232.88 C441.855943,232.88 431.488047,230.816021 422.08,226.688 C412.671953,222.559979 404.608034,216.944036 397.888,209.84 C391.167966,202.735964 385.936019,194.432048 382.192,184.928 C378.447981,175.423952 376.576,165.392053 376.576,154.832 C376.576,144.271947 378.447981,134.288047 382.192,124.88 C385.936019,115.471953 391.215966,107.216036 398.032,100.112 C404.848034,93.0079645 412.959953,87.3920206 422.368,83.264 C431.776047,79.1359794 442.143943,77.072 453.472,77.072 C464.800057,77.072 475.119953,79.1839789 484.432,83.408 C493.744047,87.6320211 501.663967,93.247965 508.192,100.256 C514.720033,107.264035 519.759982,115.423953 523.312,124.736 C526.864018,134.048047 528.64,143.69595 528.64,153.68 C528.64,155.792011 528.592,157.711991 528.496,159.44 C528.4,161.168009 528.256001,162.511995 528.064,163.472 L403.36,163.472 C403.936003,170.960037 405.663986,177.775969 408.544,183.92 C411.424014,190.064031 415.167977,195.343978 419.776,199.76 C424.384023,204.176022 429.615971,207.631988 435.472,210.128 C441.328029,212.624012 447.519967,213.872 454.048,213.872 C458.656023,213.872 463.167978,213.248006 467.584,212 C472.000022,210.751994 476.127981,209.072011 479.968,206.96 C483.808019,204.847989 487.215985,202.256015 490.192,199.184 C493.168015,196.111985 495.423992,192.656019 496.96,188.816 L518.848,194.864 C516.351988,200.432028 512.944022,205.519977 508.624,210.128 C504.303978,214.736023 499.312028,218.719983 493.648,222.08 C487.983972,225.440017 481.696035,228.07999 474.784,230 C467.871965,231.92001 460.672037,232.88 453.184,232.88 L453.184,232.88 Z M504.736,144.752 C504.159997,137.647964 502.384015,131.07203 499.408,125.024 C496.431985,118.97597 492.688023,113.840021 488.176,109.616 C483.663977,105.391979 478.43203,102.080012 472.48,99.68 C466.52797,97.279988 460.192034,96.08 453.472,96.08 C446.751966,96.08 440.41603,97.279988 434.464,99.68 C428.51197,102.080012 423.280023,105.439978 418.768,109.76 C414.255977,114.080022 410.608014,119.21597 407.824,125.168 C405.039986,131.12003 403.360003,137.647964 402.784,144.752 L504.736,144.752 Z M554.848,230 L554.848,197.744 L576.16,197.744 L576.16,230 L554.848,230 Z M692.8,222.512 C691.263992,223.280004 689.248012,224.191995 686.752,225.248 C684.255988,226.304005 681.424016,227.359995 678.256,228.416 C675.087984,229.472005 671.632019,230.335997 667.888,231.008 C664.143981,231.680003 660.25602,232.016 656.224,232.016 C647.007954,232.016 639.040034,229.472025 632.32,224.384 C625.599966,219.295975 622.24,211.376054 622.24,200.624 L622.24,99.536 L601.792,99.536 L601.792,79.664 L622.24,79.664 L622.24,29.552 L647.584,29.552 L647.584,79.664 L681.28,79.664 L681.28,99.536 L647.584,99.536 L647.584,192.848 C647.968002,198.416028 649.791984,202.447988 653.056,204.944 C656.320016,207.440012 660.159978,208.688 664.576,208.688 C669.568025,208.688 674.127979,207.872008 678.256,206.24 C682.384021,204.607992 685.215992,203.312005 686.752,202.352 L692.8,222.512 Z M795.904,101.84 C783.231937,102.224002 772.048048,105.487969 762.352,111.632 C752.655952,117.776031 745.79202,126.319945 741.76,137.264 L741.76,230 L716.416,230 L716.416,79.664 L740.032,79.664 L740.032,114.512 C745.216026,104.143948 752.031958,95.7440322 760.48,89.312 C768.928042,82.8799678 777.951952,79.2800038 787.552,78.512 C789.47201,78.512 791.103993,78.512 792.448,78.512 C793.792007,78.512 794.943995,78.607999 795.904,78.8 L795.904,101.84 Z M859.552,232.88 C852.447964,232.88 845.824031,231.680012 839.68,229.28 C833.535969,226.879988 828.208023,223.568021 823.696,219.344 C819.183977,215.119979 815.632013,210.176028 813.04,204.512 C810.447987,198.847972 809.152,192.656034 809.152,185.936 C809.152,179.023965 810.687985,172.736028 813.76,167.072 C816.832015,161.407972 821.199972,156.56002 826.864,152.528 C832.528028,148.49598 839.247961,145.328012 847.024,143.024 C854.800039,140.719988 863.295954,139.568 872.512,139.568 C879.808036,139.568 887.199963,140.239993 894.688,141.584 C902.176037,142.928007 908.799971,144.751988 914.56,147.056 L914.56,134.96 C914.56,122.671939 911.104035,113.024035 904.192,106.016 C897.279965,99.007965 887.488063,95.504 874.816,95.504 C859.647924,95.504 843.712084,101.359941 827.008,113.072 L818.656,96.656 C838.048097,83.5999347 857.535902,77.072 877.12,77.072 C896.896099,77.072 912.303945,82.3519472 923.344,92.912 C934.384055,103.472053 939.904,118.351904 939.904,137.552 L939.904,198.896 C939.904,204.84803 942.591973,207.919999 947.968,208.112 L947.968,230 C945.279987,230.384002 943.072009,230.671999 941.344,230.864 C939.615991,231.056001 937.79201,231.152 935.872,231.152 C930.879975,231.152 926.896015,229.664015 923.92,226.688 C920.943985,223.711985 919.168003,220.112021 918.592,215.888 L918.016,205.232 C911.295966,214.256045 902.800051,221.119976 892.528,225.824 C882.255949,230.528024 871.264059,232.88 859.552,232.88 L859.552,232.88 Z M866.176,213.872 C875.200045,213.872 883.599961,212.192017 891.376,208.832 C899.152039,205.471983 905.05598,201.008028 909.088,195.44 C912.736018,191.791982 914.56,188.048019 914.56,184.208 L914.56,162.032 C902.271939,157.231976 889.504066,154.832 876.256,154.832 C863.583937,154.832 853.26404,157.519973 845.296,162.896 C837.32796,168.272027 833.344,175.279957 833.344,183.92 C833.344,188.144021 834.159992,192.079982 835.792,195.728 C837.424008,199.376018 839.727985,202.543987 842.704,205.232 C845.680015,207.920013 849.18398,210.031992 853.216,211.568 C857.24802,213.104008 861.567977,213.872 866.176,213.872 L866.176,213.872 Z M1019.104,230 L959.776,79.664 L985.984,79.664 L1033.504,207.824 L1081.312,79.664 L1105.504,79.664 L1046.176,230 L1019.104,230 Z M1191.904,232.88 C1180.57594,232.88 1170.20805,230.816021 1160.8,226.688 C1151.39195,222.559979 1143.32803,216.944036 1136.608,209.84 C1129.88797,202.735964 1124.65602,194.432048 1120.912,184.928 C1117.16798,175.423952 1115.296,165.392053 1115.296,154.832 C1115.296,144.271947 1117.16798,134.288047 1120.912,124.88 C1124.65602,115.471953 1129.93597,107.216036 1136.752,100.112 C1143.56803,93.0079645 1151.67995,87.3920206 1161.088,83.264 C1170.49605,79.1359794 1180.86394,77.072 1192.192,77.072 C1203.52006,77.072 1213.83995,79.1839789 1223.152,83.408 C1232.46405,87.6320211 1240.38397,93.247965 1246.912,100.256 C1253.44003,107.264035 1258.47998,115.423953 1262.032,124.736 C1265.58402,134.048047 1267.36,143.69595 1267.36,153.68 C1267.36,155.792011 1267.312,157.711991 1267.216,159.44 C1267.12,161.168009 1266.976,162.511995 1266.784,163.472 L1142.08,163.472 C1142.656,170.960037 1144.38399,177.775969 1147.264,183.92 C1150.14401,190.064031 1153.88798,195.343978 1158.496,199.76 C1163.10402,204.176022 1168.33597,207.631988 1174.192,210.128 C1180.04803,212.624012 1186.23997,213.872 1192.768,213.872 C1197.37602,213.872 1201.88798,213.248006 1206.304,212 C1210.72002,210.751994 1214.84798,209.072011 1218.688,206.96 C1222.52802,204.847989 1225.93599,202.256015 1228.912,199.184 C1231.88801,196.111985 1234.14399,192.656019 1235.68,188.816 L1257.568,194.864 C1255.07199,200.432028 1251.66402,205.519977 1247.344,210.128 C1243.02398,214.736023 1238.03203,218.719983 1232.368,222.08 C1226.70397,225.440017 1220.41603,228.07999 1213.504,230 C1206.59197,231.92001 1199.39204,232.88 1191.904,232.88 L1191.904,232.88 Z M1243.456,144.752 C1242.88,137.647964 1241.10401,131.07203 1238.128,125.024 C1235.15199,118.97597 1231.40802,113.840021 1226.896,109.616 C1222.38398,105.391979 1217.15203,102.080012 1211.2,99.68 C1205.24797,97.279988 1198.91203,96.08 1192.192,96.08 C1185.47197,96.08 1179.13603,97.279988 1173.184,99.68 C1167.23197,102.080012 1162.00002,105.439978 1157.488,109.76 C1152.97598,114.080022 1149.32801,119.21597 1146.544,125.168 C1143.75999,131.12003 1142.08,137.647964 1141.504,144.752 L1243.456,144.752 Z M1296.16,19.76 L1321.504,19.76 L1321.504,191.12 C1321.504,196.688028 1322.99199,201.055984 1325.968,204.224 C1328.94401,207.392016 1333.11997,208.976 1338.496,208.976 C1340.60801,208.976 1343.10399,208.640003 1345.984,207.968 C1348.86401,207.295997 1351.55199,206.480005 1354.048,205.52 L1358.08,225.968 C1353.85598,227.696009 1348.86403,229.135994 1343.104,230.288 C1337.34397,231.440006 1332.25602,232.016 1327.84,232.016 C1318.04795,232.016 1310.32003,229.232028 1304.656,223.664 C1298.99197,218.095972 1296.16,210.32005 1296.16,200.336 L1296.16,19.76 Z" id="e2e.travel" fill="#00BCD4"></path>
            <polygon id="Triangle-Copy" fill="#00BCD4" transform="translate(351.000000, 224.000000) rotate(90.000000) translate(-351.000000, -224.000000) " points="351 212 363 236 353.303581 236 339 236"></polygon>
        </g>
    </g>
</svg>
