<?xml version="1.0" encoding="UTF-8" standalone="no"?>
<svg width="533px" height="236px" viewBox="0 0 533 236" version="1.1" xmlns="http://www.w3.org/2000/svg" xmlns:xlink="http://www.w3.org/1999/xlink">
    <!-- Generator: Sketch 39.1 (31720) - http://www.bohemiancoding.com/sketch -->
    <title>Purple Flat@3x</title>
    <desc>Created with Sketch.</desc>
    <defs></defs>
    <g id="Page-4" stroke="none" stroke-width="1" fill="none" fill-rule="evenodd">
        <g id="Purple-Flat">
            <path d="M195.208,41.6 C192.54132,41.6 191.208,40.26668 191.208,37.6 C191.208,34.93332 192.54132,33.6 195.208,33.6 C197.87468,33.6 199.208,34.93332 199.208,37.6 C199.208,40.26668 197.87468,41.6 195.208,41.6 L195.208,41.6 Z M205.208,31.6 C202.54132,31.6 201.208,30.26668 201.208,27.6 C201.208,24.93332 202.54132,23.6 205.208,23.6 C207.87468,23.6 209.208,24.93332 209.208,27.6 C209.208,30.26668 207.87468,31.6 205.208,31.6 L205.208,31.6 Z M217.208,22.4 C214.54132,22.4 213.208,21.06668 213.208,18.4 C213.208,15.73332 214.54132,14.4 217.208,14.4 C219.87468,14.4 221.208,15.73332 221.208,18.4 C221.208,21.06668 219.87468,22.4 217.208,22.4 L217.208,22.4 Z M230.808,15.6 C228.14132,15.6 226.808,14.26668 226.808,11.6 C226.808,8.93332 228.14132,7.6 230.808,7.6 C233.47468,7.6 234.808,8.93332 234.808,11.6 C234.808,14.26668 233.47468,15.6 230.808,15.6 L230.808,15.6 Z M244.808,10.8 C242.14132,10.8 240.808,9.46668 240.808,6.8 C240.808,4.13332 242.14132,2.8 244.808,2.8 C247.47468,2.8 248.808,4.13332 248.808,6.8 C248.808,9.46668 247.47468,10.8 244.808,10.8 L244.808,10.8 Z M259.208,8 C256.54132,8 255.208,6.66668 255.208,4 C255.208,1.33332 256.54132,0 259.208,0 C261.87468,0 263.208,1.33332 263.208,4 C263.208,6.66668 261.87468,8 259.208,8 L259.208,8 Z M274.008,8 C271.34132,8 270.008,6.66668 270.008,4 C270.008,1.33332 271.34132,0 274.008,0 C276.67468,0 278.008,1.33332 278.008,4 C278.008,6.66668 276.67468,8 274.008,8 L274.008,8 Z M288.808,10.4 C286.14132,10.4 284.808,9.06668 284.808,6.4 C284.808,3.73332 286.14132,2.4 288.808,2.4 C291.47468,2.4 292.808,3.73332 292.808,6.4 C292.808,9.06668 291.47468,10.4 288.808,10.4 L288.808,10.4 Z M303.208,16 C300.54132,16 299.208,14.66668 299.208,12 C299.208,9.33332 300.54132,8 303.208,8 C305.87468,8 307.208,9.33332 307.208,12 C307.208,14.66668 305.87468,16 303.208,16 L303.208,16 Z M316.008,24.8 C313.34132,24.8 312.008,23.46668 312.008,20.8 C312.008,18.13332 313.34132,16.8 316.008,16.8 C318.67468,16.8 320.008,18.13332 320.008,20.8 C320.008,23.46668 318.67468,24.8 316.008,24.8 L316.008,24.8 Z M326.408,36.4 C323.74132,36.4 322.408,35.06668 322.408,32.4 C322.408,29.73332 323.74132,28.4 326.408,28.4 C329.07468,28.4 330.408,29.73332 330.408,32.4 C330.408,35.06668 329.07468,36.4 326.408,36.4 L326.408,36.4 Z M332.408,50.4 C329.74132,50.4 328.408,49.06668 328.408,46.4 C328.408,43.73332 329.74132,42.4 332.408,42.4 C335.07468,42.4 336.408,43.73332 336.408,46.4 C336.408,49.06668 335.07468,50.4 332.408,50.4 L332.408,50.4 Z M334.408,66 C331.74132,66 330.408,64.66668 330.408,62 C330.408,59.33332 331.74132,58 334.408,58 C337.07468,58 338.408,59.33332 338.408,62 C338.408,64.66668 337.07468,66 334.408,66 L334.408,66 Z M332.408,81.2 C329.74132,81.2 328.408,79.86668 328.408,77.2 C328.408,74.53332 329.74132,73.2 332.408,73.2 C335.07468,73.2 336.408,74.53332 336.408,77.2 C336.408,79.86668 335.07468,81.2 332.408,81.2 L332.408,81.2 Z M326.008,94.4 C323.34132,94.4 322.008,93.06668 322.008,90.4 C322.008,87.73332 323.34132,86.4 326.008,86.4 C328.67468,86.4 330.008,87.73332 330.008,90.4 C330.008,93.06668 328.67468,94.4 326.008,94.4 L326.008,94.4 Z M316.008,104.8 C313.34132,104.8 312.008,103.46668 312.008,100.8 C312.008,98.13332 313.34132,96.8 316.008,96.8 C318.67468,96.8 320.008,98.13332 320.008,100.8 C320.008,103.46668 318.67468,104.8 316.008,104.8 L316.008,104.8 Z M303.608,113.2 C300.94132,113.2 299.608,111.86668 299.608,109.2 C299.608,106.53332 300.94132,105.2 303.608,105.2 C306.27468,105.2 307.608,106.53332 307.608,109.2 C307.608,111.86668 306.27468,113.2 303.608,113.2 L303.608,113.2 Z M290.408,120 C287.74132,120 286.408,118.66668 286.408,116 C286.408,113.33332 287.74132,112 290.408,112 C293.07468,112 294.408,113.33332 294.408,116 C294.408,118.66668 293.07468,120 290.408,120 L290.408,120 Z M276.408,126 C273.74132,126 272.408,124.66668 272.408,122 C272.408,119.33332 273.74132,118 276.408,118 C279.07468,118 280.408,119.33332 280.408,122 C280.408,124.66668 279.07468,126 276.408,126 L276.408,126 Z M262.008,132 C259.34132,132 258.008,130.66668 258.008,128 C258.008,125.33332 259.34132,124 262.008,124 C264.67468,124 266.008,125.33332 266.008,128 C266.008,130.66668 264.67468,132 262.008,132 L262.008,132 Z M248.008,138.8 C245.34132,138.8 244.008,137.46668 244.008,134.8 C244.008,132.13332 245.34132,130.8 248.008,130.8 C250.67468,130.8 252.008,132.13332 252.008,134.8 C252.008,137.46668 250.67468,138.8 248.008,138.8 L248.008,138.8 Z M233.608,146.8 C230.94132,146.8 229.608,145.46668 229.608,142.8 C229.608,140.13332 230.94132,138.8 233.608,138.8 C236.27468,138.8 237.608,140.13332 237.608,142.8 C237.608,145.46668 236.27468,146.8 233.608,146.8 L233.608,146.8 Z M220.408,157.2 C217.74132,157.2 216.408,155.86668 216.408,153.2 C216.408,150.53332 217.74132,149.2 220.408,149.2 C223.07468,149.2 224.408,150.53332 224.408,153.2 C224.408,155.86668 223.07468,157.2 220.408,157.2 L220.408,157.2 Z M209.608,170 C206.94132,170 205.608,168.66668 205.608,166 C205.608,163.33332 206.94132,162 209.608,162 C212.27468,162 213.608,163.33332 213.608,166 C213.608,168.66668 212.27468,170 209.608,170 L209.608,170 Z M201.208,184 C198.54132,184 197.208,182.66668 197.208,180 C197.208,177.33332 198.54132,176 201.208,176 C203.87468,176 205.208,177.33332 205.208,180 C205.208,182.66668 203.87468,184 201.208,184 L201.208,184 Z M195.208,198 C192.54132,198 191.208,196.66668 191.208,194 C191.208,191.33332 192.54132,190 195.208,190 C197.87468,190 199.208,191.33332 199.208,194 C199.208,196.66668 197.87468,198 195.208,198 L195.208,198 Z M192.008,212.4 C189.34132,212.4 188.008,211.06668 188.008,208.4 C188.008,205.73332 189.34132,204.4 192.008,204.4 C194.67468,204.4 196.008,205.73332 196.008,208.4 C196.008,211.06668 194.67468,212.4 192.008,212.4 L192.008,212.4 Z M190.008,227.2 C187.34132,227.2 186.008,225.86668 186.008,223.2 C186.008,220.53332 187.34132,219.2 190.008,219.2 C192.67468,219.2 194.008,220.53332 194.008,223.2 C194.008,225.86668 192.67468,227.2 190.008,227.2 L190.008,227.2 Z M204.408,227.2 C201.74132,227.2 200.408,225.86668 200.408,223.2 C200.408,220.53332 201.74132,219.2 204.408,219.2 C207.07468,219.2 208.408,220.53332 208.408,223.2 C208.408,225.86668 207.07468,227.2 204.408,227.2 L204.408,227.2 Z M218.408,227.2 C215.74132,227.2 214.408,225.86668 214.408,223.2 C214.408,220.53332 215.74132,219.2 218.408,219.2 C221.07468,219.2 222.408,220.53332 222.408,223.2 C222.408,225.86668 221.07468,227.2 218.408,227.2 L218.408,227.2 Z M232.008,227.2 C229.34132,227.2 228.008,225.86668 228.008,223.2 C228.008,220.53332 229.34132,219.2 232.008,219.2 C234.67468,219.2 236.008,220.53332 236.008,223.2 C236.008,225.86668 234.67468,227.2 232.008,227.2 L232.008,227.2 Z M246.408,227.2 C243.74132,227.2 242.408,225.86668 242.408,223.2 C242.408,220.53332 243.74132,219.2 246.408,219.2 C249.07468,219.2 250.408,220.53332 250.408,223.2 C250.408,225.86668 249.07468,227.2 246.408,227.2 L246.408,227.2 Z M260.408,227.2 C257.74132,227.2 256.408,225.86668 256.408,223.2 C256.408,220.53332 257.74132,219.2 260.408,219.2 C263.07468,219.2 264.408,220.53332 264.408,223.2 C264.408,225.86668 263.07468,227.2 260.408,227.2 L260.408,227.2 Z M274.408,227.2 C271.74132,227.2 270.408,225.86668 270.408,223.2 C270.408,220.53332 271.74132,219.2 274.408,219.2 C277.07468,219.2 278.408,220.53332 278.408,223.2 C278.408,225.86668 277.07468,227.2 274.408,227.2 L274.408,227.2 Z M288.808,227.2 C286.14132,227.2 284.808,225.86668 284.808,223.2 C284.808,220.53332 286.14132,219.2 288.808,219.2 C291.47468,219.2 292.808,220.53332 292.808,223.2 C292.808,225.86668 291.47468,227.2 288.808,227.2 L288.808,227.2 Z M302.808,227.2 C300.14132,227.2 298.808,225.86668 298.808,223.2 C298.808,220.53332 300.14132,219.2 302.808,219.2 C305.47468,219.2 306.808,220.53332 306.808,223.2 C306.808,225.86668 305.47468,227.2 302.808,227.2 L302.808,227.2 Z M316.408,227.2 C313.74132,227.2 312.408,225.86668 312.408,223.2 C312.408,220.53332 313.74132,219.2 316.408,219.2 C319.07468,219.2 320.408,220.53332 320.408,223.2 C320.408,225.86668 319.07468,227.2 316.408,227.2 L316.408,227.2 Z M330.808,227.2 C328.14132,227.2 326.808,225.86668 326.808,223.2 C326.808,220.53332 328.14132,219.2 330.808,219.2 C333.47468,219.2 334.808,220.53332 334.808,223.2 C334.808,225.86668 333.47468,227.2 330.808,227.2 Z M507.15966,211.558548 C498.874844,219.284264 489.884614,224.845653 480.188701,228.242883 C470.492787,231.640112 460.765145,233.032451 451.005483,232.41994 C441.245821,231.807429 431.756159,229.302508 422.536213,224.905103 C413.316266,220.507697 405.105446,214.447518 397.903508,206.724384 C390.701569,199.001251 385.261646,190.4228 381.583575,180.988776 C377.905504,171.554751 376.136491,161.91584 376.276482,152.071753 C376.416474,142.227666 378.519091,132.58811 382.584398,123.152794 C386.649704,113.717478 392.824673,105.137091 401.109489,97.4113746 C409.394306,89.6856586 418.382166,84.1921095 428.073342,80.9305625 C437.764517,77.6690155 447.386845,76.3748838 456.940614,77.0481286 C466.494383,77.7213734 475.74542,80.2519226 484.694002,84.639852 C493.642584,89.0277814 501.521309,94.8725944 508.330415,102.174466 C509.770803,103.719093 511.045122,105.156014 512.15341,106.485271 C513.261699,107.814529 514.072982,108.895665 514.587283,109.728713 L423.384551,194.776636 C428.912642,199.860207 434.824863,203.666583 441.121391,206.195877 C447.417919,208.725172 453.756995,210.033304 460.13881,210.120314 C466.520624,210.207324 472.703991,209.166678 478.689097,206.998343 C484.674202,204.830009 490.053824,201.519838 494.828125,197.06773 C498.198219,193.925066 501.072492,190.39156 503.451028,186.467106 C505.829563,182.542652 507.702816,178.498729 509.07084,174.335216 C510.438865,170.171702 511.163571,165.951825 511.244981,161.675458 C511.326391,157.399091 510.619346,153.332985 509.123824,149.477018 L529.25642,138.972665 C531.228338,144.747139 532.205882,150.792457 532.189083,157.108799 C532.172283,163.425142 531.238456,169.743327 529.387574,176.063546 C527.536692,182.383765 524.738443,188.602882 520.992745,194.721084 C517.247046,200.839287 512.636064,206.451718 507.15966,211.558548 Z M486.638598,113.448675 C481.372396,108.645946 475.588748,105.047829 469.287482,102.654217 C462.986216,100.260605 456.745347,99.057786 450.564687,99.0457245 C444.384027,99.033663 438.298867,100.179623 432.309023,102.48364 C426.31918,104.787657 420.866979,108.23114 415.952258,112.814192 C411.037537,117.397244 407.222116,122.595958 404.505881,128.41049 C401.789646,134.225022 400.254734,140.250526 399.901097,146.487182 C399.54746,152.723837 400.382217,158.967938 402.405393,165.219669 C404.428568,171.471401 407.651947,177.391376 412.075626,182.979772 L486.638598,113.448675 Z M130.95166,211.558548 C122.666844,219.284264 113.676614,224.845653 103.980701,228.242883 C94.2847873,231.640112 84.5571455,233.032451 74.7974835,232.41994 C65.0378215,231.807429 55.5481594,229.302508 46.3282126,224.905103 C37.1082659,220.507697 28.8974463,214.447518 21.6955076,206.724384 C14.4935689,199.001251 9.05364581,190.4228 5.3755751,180.988776 C1.6975044,171.554751 -0.0715088263,161.91584 0.068482354,152.071753 C0.208473534,142.227666 2.31109095,132.58811 6.37639767,123.152794 C10.4417044,113.717478 16.6166732,105.137091 24.9014894,97.4113746 C33.1863055,89.6856586 42.1741664,84.1921095 51.8653416,80.9305625 C61.5565168,77.6690155 71.1788446,76.3748838 80.7326139,77.0481286 C90.2863831,77.7213734 99.5374199,80.2519226 108.486002,84.639852 C117.434584,89.0277814 125.313309,94.8725944 132.122415,102.174466 C133.562803,103.719093 134.837122,105.156014 135.94541,106.485271 C137.053699,107.814529 137.864982,108.895665 138.379283,109.728713 L47.176551,194.776636 C52.7046421,199.860207 58.616863,203.666583 64.913391,206.195877 C71.2099191,208.725172 77.5489953,210.033304 83.9308098,210.120314 C90.3126243,210.207324 96.4959914,209.166678 102.481097,206.998343 C108.466202,204.830009 113.845824,201.519838 118.620125,197.06773 C121.990219,193.925066 124.864492,190.39156 127.243028,186.467106 C129.621563,182.542652 131.494816,178.498729 132.86284,174.335216 C134.230865,170.171702 134.955571,165.951825 135.036981,161.675458 C135.118391,157.399091 134.411346,153.332985 132.915824,149.477018 L153.04842,138.972665 C155.020338,144.747139 155.997882,150.792457 155.981083,157.108799 C155.964283,163.425142 155.030456,169.743327 153.179574,176.063546 C151.328692,182.383765 148.530443,188.602882 144.784745,194.721084 C141.039046,200.839287 136.428064,206.451718 130.95166,211.558548 Z M110.430598,113.448675 C105.164396,108.645946 99.3807484,105.047829 93.0794822,102.654217 C86.778216,100.260605 80.5373466,99.057786 74.3566867,99.0457245 C68.1760268,99.033663 62.0908665,100.179623 56.1010233,102.48364 C50.1111801,104.787657 44.6589795,108.23114 39.744258,112.814192 C34.8295366,117.397244 31.0141157,122.595958 28.297881,128.41049 C25.5816462,134.225022 24.0467335,140.250526 23.6930967,146.487182 C23.33946,152.723837 24.1742169,158.967938 26.1973926,165.219669 C28.2205682,171.471401 31.4439471,177.391376 35.8676258,182.979772 L110.430598,113.448675 Z" id="Stoke---2" fill="#512DA8"></path>
            <polygon id="Triangle" fill="#00BCD4" transform="translate(352.000000, 224.000000) rotate(90.000000) translate(-352.000000, -224.000000) " points="352 212 364 236 340 236"></polygon>
        </g>
    </g>
</svg>